<?xml version="1.0" encoding="utf-8"?>
<!-- Generator: Adobe Illustrator 22.0.1, SVG Export Plug-In . SVG Version: 6.00 Build 0)  -->
<svg version="1.1" id="Layer_1" xmlns="http://www.w3.org/2000/svg" xmlns:xlink="http://www.w3.org/1999/xlink" x="0px" y="0px"
	 viewBox="0 0 355.3 476.9" style="enable-background:new 0 0 355.3 476.9;" xml:space="preserve">
<style type="text/css">
	.st0{fill:#184C8C;}
	.st1{fill:#7BB0DF;}
	.st2{fill:#7CB0DF;}
	.st3{fill:#3D99D4;}
	.st4{fill:#9DC1E7;}
	.st5{fill:#B6D2ED;}
	.st6{fill:#194D8C;}
</style>
<g>
	<path class="st0" d="M0,0c118.5,0,236.8,0,355.3,0c0,0.7,0,1.3,0,1.9c0,87,0,174,0,261c0,24.7-3.3,49-11.3,72.4
		c-12.8,37.6-35.8,68-67,92.2c-22,17.1-46.3,29.9-72.2,39.8c-8.6,3.3-17.3,6-26,9c-0.7,0.2-1.5,0.2-2.2,0
		c-31.6-9.7-61.6-22.9-88.8-41.9c-26.9-18.8-48.9-42.1-64.4-71.3c-10-18.8-16.5-38.8-20-59.8C0.9,289.3,0,275.1,0,260.9
		C0,174.7,0,88.6,0,2.5C0,1.7,0,1,0,0z M10.8,10.7c0,0.7,0,1.4,0,2c0,83.2,0,166.5,0,249.7c0,15.6,1.3,31.1,4.5,46.4
		c4.5,21.4,12.2,41.5,23.8,60c16,25.7,37.5,46,62.8,62.3c23.2,15,48.3,25.8,74.5,34.1c0.8,0.3,1.9,0.2,2.7-0.1c4-1.3,8-2.6,12-4
		c25.6-9.1,49.9-20.8,72.1-36.7c20.5-14.7,38-32.2,51.7-53.4c20.2-31.5,29.5-66.2,29.7-103.4c0.3-85.1,0.1-170.1,0.1-255.2
		c0-0.6,0-1.2,0-1.9C233.2,10.7,122.1,10.7,10.8,10.7z"/>
	<path class="st0" d="M21.3,21.4c104.2,0,208.3,0,312.6,0c0,0.7,0,1.3,0,1.9c0,79.3,0,158.7,0,238c0,26.5-4.3,52.3-14.5,76.9
		c-11.7,28.4-29.9,51.9-53.8,71.1c-23.3,18.9-49.8,32.1-77.9,42c-3,1.1-6,2.1-9,3.1c-0.6,0.2-1.4,0.3-2,0.1
		c-22.4-7.3-44.1-16.5-64.2-28.9c-25.3-15.6-46.7-35.2-62.7-60.4c-12.6-19.8-20.7-41.4-24.9-64.4c-2.5-13.9-3.5-27.9-3.5-42
		c0-78.3,0-156.6,0-234.8C21.3,23.1,21.3,22.3,21.3,21.4z M53.1,358.3c0.4,0.7,0.7,1.3,1.1,2c9.9,15.8,22.2,29.7,36.6,41.6
		c5.8,4.7,11.9,9,17.9,13.4c0,0,0.1,0,0.1,0c0.5,0.4,1,0.8,1.5,1.2c18,11.9,37.4,21,57.6,28.2c3.2,1.1,6.5,2.1,9.7,3.1
		c0.3-0.1,0.7,0,1-0.2c5.6-2,11.1-4,16.6-6c11.9-4.5,23.4-9.9,34.5-16.1c21.2-11.8,40.1-26.3,56-44.7c11.9-13.8,21.4-29.1,28.3-46
		c1.6-3.9,2.9-7.9,4.3-11.9c-1.5-3.4-2.9-6.9-4.5-10.3c-6.4-13.5-13.7-26.6-22.5-38.7c-6.1-8.4-12.7-16.5-19.2-24.5
		c-3.1-3.8-6.7-7.1-10-10.7c0,0,0,0,0,0c-5.2-4.9-10.2-9.9-15.5-14.6c-10.3-9.1-21.3-17.2-32.9-24.5c-17.2-10.9-35.4-19.6-54.6-26.1
		c-6.1-2.1-12.4-3.6-18.6-5.5l0,0c-0.3-0.1-0.5-0.3-0.8-0.3c-12.1-3-24.2-5.4-36.6-6.4c-7-0.6-14-1.1-21.1-1.3
		c-5.8-0.2-11.6,0.1-17.5,0.3c-4.3,0.2-8.5,0.6-12.8,1.1c-5.2,0.7-10.4,1.5-15.6,2.4c-3.1,0.5-6.1,1.4-9.1,2.1
		c0,0.6-0.1,1.3-0.1,1.9c0,30.3,0,60.6,0,90.8c0,6,0.3,12,0.7,18c0.7,11.5,2.4,22.9,5.4,34c2,7.5,4.8,14.8,7.2,22.2
		c1.1,2.6,2,5.3,3.3,7.8C46.7,346.6,49.9,352.4,53.1,358.3z M45.4,45.3c-0.5,3.7-0.3,4,3.1,5c4.1,1.2,5.4,2.9,5.4,7.2
		c0,17.7,0,35.4,0,53c0,4.3-1.2,5.9-5.4,7.1c-3.4,1-3.5,1.3-3.1,5c7.9,0,15.8,0,23.7,0c0.4-3.4,0.1-4.1-2.3-4.8
		c-5.3-1.6-6.2-2.8-6.2-8.3c0-15.6,0-31.1,0-46.7c0-0.4,0.1-0.8,0.1-1.5c0.7,0.8,1.1,1.3,1.6,1.8C74.1,77.5,85.9,91.7,97.6,106
		c3.9,4.8,7.8,9.6,11.8,14.3c1.3,1.6,2.7,2.7,5,2.1c0-0.8,0-1.5,0-2.2c0-20.3,0-40.5,0-60.8c0-0.8,0-1.7,0-2.5
		c0.2-4.1,1.4-5.6,5.4-6.8c3.3-1,3.6-1.4,3.1-4.9c-8,0-15.9,0-23.9,0c-0.4,3.7-0.3,3.9,3.2,4.9c0.2,0.1,0.4,0.2,0.7,0.2
		c3.2,1.1,4.3,2.6,4.6,5.9c0.1,0.7,0,1.4,0,2.1c0,13.5,0,27,0,40.5c0,0.5,0,1,0,1.9c-0.6-0.6-0.9-0.9-1.2-1.3
		c-5-6.2-10-12.4-15-18.6c-9-11.1-17.9-22.2-26.9-33.3c-0.9-1.1-2.4-2.3-3.6-2.4C55.8,45.2,50.6,45.3,45.4,45.3z M201.6,122.6
		c0.5-3.7,0-4.3-3.1-4.9c-2.1-0.4-3.7-1.8-4.8-3.6c-1.1-1.8-2.1-3.7-2.9-5.6c-4.8-11.8-9.5-23.7-14.2-35.5
		c-3.7-9.2-7.3-18.4-11-27.5c-0.2-0.6-0.7-1.4-1.2-1.5c-2.7-0.5-4.8,0.5-6.2,3c-0.4,0.8-0.8,1.6-1.1,2.4
		c-7.9,19.8-15.7,39.7-23.6,59.5c-1.8,4.6-5,7.6-9.8,8.9c-3.2,0.9-3.6,1.5-2.8,4.8c9.3,0,18.7,0,28,0c0.2-3.5,0.2-3.5-3-4.6
		c-0.2-0.1-0.4-0.1-0.7-0.2c-4.4-1.6-5.6-4-3.9-8.4c1.6-4,3.2-8,4.9-11.9c0.2-0.4,0.9-0.9,1.4-0.9c8.5-0.1,17-0.1,25.5,0
		c0.5,0,1.2,0.5,1.4,0.9c2,4.6,4,9.2,5.8,13.8c1.4,3.4,0.5,5.1-3,6.4c-0.4,0.1-0.8,0.3-1.2,0.4c-2.8,0.9-3.2,1.5-2.5,4.5
		C183,122.6,192.2,122.6,201.6,122.6z M309.4,63.6c0-6.2,0-12.2,0-18.2c-22.1,0-44,0-66.1,0c0,6.1,0,12.2,0,18.2
		c3.2,0.4,3.5,0.2,4.5-2.6c0.5-1.4,1-2.8,1.7-4.1c1-1.9,2.6-3.4,4.8-3.5c5.4-0.1,10.8,0,16.4,0c0,0.6,0,1.2,0,1.8
		c0,12.1,0,24.2,0,36.2c0,6.2,0,12.5,0,18.7c0,3.5-1.4,5.5-4.7,6.7c-0.8,0.3-1.7,0.6-2.5,0.8c-3.2,0.9-3.6,1.5-2.9,4.9
		c10.5,0,21,0,31.5,0c0.2-3.9,0.2-4-3.4-5c-1-0.3-1.9-0.6-2.8-1c-2.5-1.1-3.8-3-3.9-5.8c0-0.8-0.1-1.5-0.1-2.3c0-17.9,0-35.7,0-53.6
		c0-0.6,0.1-1.1,0.1-1.6c5.4,0,10.7-0.1,16,0c2.2,0,3.8,1.3,4.8,3.1c0.7,1.3,1.3,2.8,1.8,4.2C305.7,63.7,306,63.9,309.4,63.6z
		 M207.8,122.6c9.7,0,19.4,0,29,0c0.4-3.7,0.2-4-3.2-4.9c-4.7-1.3-5.9-2.9-6-7.8c0-17.3,0-34.5,0-51.8c0-5,1.3-6.6,6.1-7.9
		c3.3-0.9,3.6-1.3,3.1-4.9c-9.6,0-19.2,0-28.9,0c-0.4,3.7-0.3,4,3.3,5c0.1,0,0.1,0,0.2,0.1c4.4,1.2,5.6,2.7,5.6,7.2
		c0,17.6,0,35.1,0,52.7c0,4.6-1.3,6.1-5.7,7.4C207.6,118.7,207.5,118.7,207.8,122.6z"/>
	<path class="st1" d="M318.4,322.9c-1.4,4-2.7,8-4.3,11.9c-6.9,16.9-16.4,32.2-28.3,46c-15.9,18.4-34.8,33-56,44.7
		c-11.1,6.2-22.6,11.5-34.5,16.1c8.2-25,16.5-50,24.8-75.4c-5.9,2.6-11.4,5.1-16.9,7.5c-7.7,3.4-15.4,6.8-23.1,10.1
		c-3.4,1.5-6.9,3-10.3,4.5c-0.2-1.6-0.5-3.1-0.7-4.7c-0.6-4.8-1.2-9.6-1.8-14.4c-0.8-5.9-1.6-11.8-2.4-17.7
		c-0.6-4.1-1.1-8.2-1.7-12.3c-0.6-4.6-1.2-9.3-1.8-13.9c-0.5-4.1-1-8.1-1.5-12.2c-0.6-4.9-1.3-9.8-2-14.7c0-0.1,0-0.3,0-0.4
		c0.3-0.1,0.6-0.1,0.8-0.3c8.4-4.8,16.7-9.6,25.1-14.4c8.3-4.8,16.7-9.6,25-14.4c8.1-4.7,16.3-9.3,24.4-14
		c8.2-4.7,16.4-9.5,24.6-14.1c1.4-0.8,2.9-1.4,4.4-2.1c0,0,0,0,0,0c-2,6.1-4,12.1-6,18.2c-6.4,19.5-12.8,38.9-19.2,58.4
		c-5.4,16.2-10.7,32.5-16.1,48.7c-0.2,0.6-0.3,1.2-0.5,2c0.7-0.3,1.1-0.4,1.4-0.5c7.5-3.3,14.9-6.6,22.4-9.9
		c8.9-3.9,17.8-7.9,26.8-11.8c7.1-3.2,14.3-6.3,21.4-9.5C301.1,330.5,309.7,326.7,318.4,322.9z"/>
	<path class="st2" d="M157.9,298.1c0,0.1,0,0.3,0,0.4c-0.5,0.2-1.1,0.4-1.6,0.7c-6,3.4-11.9,6.8-17.9,10.3
		c-6.8,3.9-13.6,7.8-20.5,11.8c-7.4,4.2-14.8,8.5-22.1,12.7c-3.8,2.2-7.5,4.4-11.2,6.6c-0.1,0-0.2,0-0.3,0
		c-1.7-5.4-3.4-10.9-5.2-16.3c-2.1-6.6-4.3-13.2-6.5-19.8c-1.8-5.3-3.5-10.7-5.4-16.4c-1.5,2.3-2.8,4.4-4,6.5
		c-5.8,9.6-11.7,19.2-17.5,28.8c-1.9,3.1-3.6,6.3-5.4,9.5c-2.4-7.4-5.2-14.7-7.2-22.2c-3-11.1-4.8-22.5-5.4-34c-0.3-6-0.6-12-0.7-18
		c-0.1-30.3,0-60.6,0-90.8c0-0.6,0-1.3,0.1-1.9c0.2,0.5,0.5,0.9,0.6,1.4c3.9,11.9,7.8,23.8,11.7,35.7c4.5,13.9,9.1,27.8,13.6,41.7
		c4.2,12.7,8.4,25.4,12.6,38.1c0.5,1.6,1,3.3,1.6,5.1c0.5-0.6,0.7-1,0.9-1.3c6.3-10.3,12.5-20.6,18.8-30.9
		c7.8-12.9,15.7-25.8,23.5-38.7c8.3-13.6,16.5-27.2,24.8-40.8c1.7-2.8,3.5-5.5,5.3-8.3c0,0,0,0,0,0c0.4,2.7,0.7,5.3,1.1,8
		c0.5,4.1,1.1,8.2,1.6,12.3c0.5,3.9,1,7.8,1.5,11.6c0.5,4.1,1.1,8.2,1.6,12.3c0.6,4.7,1.3,9.5,1.9,14.2c0.5,4,1,8,1.5,12
		c0.6,4.8,1.4,9.6,2,14.4c0.6,4.9,1.2,9.9,1.8,14.8c0.6,4.8,1.4,9.6,2,14.4C156.5,287.4,157.2,292.8,157.9,298.1z"/>
	<path class="st3" d="M157.9,298.1c-0.7-5.3-1.4-10.7-2.1-16c-0.7-4.8-1.4-9.6-2-14.4c-0.7-4.9-1.2-9.9-1.8-14.8
		c-0.6-4.8-1.4-9.6-2-14.4c-0.5-4-1-8-1.5-12c-0.6-4.8-1.3-9.5-1.9-14.2c-0.5-4.1-1.1-8.2-1.6-12.3c-0.5-3.9-1-7.8-1.5-11.6
		c-0.5-4.1-1.1-8.2-1.6-12.3c-0.4-2.7-0.7-5.3-1.1-8c6.2,1.8,12.5,3.4,18.6,5.5c19.2,6.5,37.4,15.3,54.6,26.1
		c11.6,7.3,22.7,15.4,32.9,24.5c5.3,4.7,10.4,9.7,15.5,14.6c-1.5,0.7-3,1.3-4.4,2.1c-8.2,4.7-16.4,9.4-24.6,14.1
		c-8.1,4.7-16.3,9.3-24.4,14c-8.3,4.8-16.7,9.6-25,14.4c-8.3,4.8-16.7,9.6-25.1,14.4C158.4,298,158.1,298,157.9,298.1z"/>
	<path class="st3" d="M140.5,168c-1.8,2.7-3.6,5.5-5.3,8.3c-8.3,13.6-16.5,27.2-24.8,40.8c-7.8,12.9-15.7,25.8-23.5,38.7
		c-6.3,10.3-12.5,20.6-18.8,30.9c-0.2,0.3-0.5,0.7-0.9,1.3c-0.6-1.9-1.1-3.5-1.6-5.1c-4.2-12.7-8.4-25.4-12.6-38.1
		c-4.6-13.9-9.1-27.8-13.6-41.7c-3.9-11.9-7.8-23.8-11.7-35.7c-0.2-0.5-0.4-1-0.6-1.4c3-0.7,6.1-1.6,9.1-2.1
		c5.2-0.9,10.4-1.7,15.6-2.4c4.2-0.5,8.5-0.9,12.8-1.1c5.8-0.3,11.6-0.5,17.5-0.3c7,0.2,14.1,0.8,21.1,1.3c12.4,1,24.6,3.4,36.6,6.4
		C140,167.7,140.2,167.9,140.5,168z"/>
	<path class="st4" d="M84.6,340.6c3.7-2.2,7.4-4.5,11.2-6.6c7.4-4.3,14.8-8.5,22.1-12.7c6.8-3.9,13.6-7.8,20.5-11.8
		c6-3.4,11.9-6.8,17.9-10.3c0.5-0.3,1.1-0.5,1.6-0.7c0.7,4.9,1.4,9.8,2,14.7c0.5,4,1,8.1,1.5,12.2c0.6,4.6,1.2,9.3,1.8,13.9
		c0.6,4.1,1.1,8.2,1.7,12.3c0.8,5.9,1.6,11.8,2.4,17.7c0.6,4.8,1.2,9.6,1.8,14.4c0.2,1.6,0.5,3.1,0.7,4.7c0,0.1,0,0.2,0,0.4
		c-0.6,0.2-1.2,0.3-1.8,0.6c-5.4,2.4-10.7,4.8-16.1,7.1c-8.5,3.7-17,7.5-25.5,11.2c-5.9,2.6-11.7,5.1-17.6,7.7c0,0-0.1,0-0.1,0
		c-0.1-0.6-0.2-1.2-0.4-1.7c-2.8-8.7-5.6-17.4-8.5-26.1c-3.6-10.9-7.2-21.8-10.8-32.8C87.5,350,86.1,345.3,84.6,340.6z"/>
	<path class="st3" d="M318.4,322.9c-8.7,3.8-17.3,7.6-26,11.4c-7.2,3.1-14.3,6.3-21.4,9.5c-8.9,3.9-17.8,7.9-26.8,11.8
		c-7.5,3.3-14.9,6.6-22.4,9.9c-0.4,0.2-0.7,0.3-1.4,0.5c0.2-0.8,0.3-1.5,0.5-2c5.4-16.2,10.7-32.5,16.1-48.7
		c6.4-19.5,12.8-38.9,19.2-58.4c2-6.1,4-12.1,6-18.2c3.4,3.5,6.9,6.9,10,10.7c6.6,8,13.1,16.1,19.2,24.5
		c8.8,12.1,16.1,25.1,22.5,38.7C315.5,316,316.9,319.5,318.4,322.9z"/>
	<path class="st4" d="M169.9,388.7c0-0.1,0-0.2,0-0.4c3.4-1.5,6.9-2.9,10.3-4.5c7.7-3.4,15.4-6.7,23.1-10.1
		c5.5-2.4,10.9-4.9,16.9-7.5c-8.4,25.4-16.6,50.4-24.8,75.4c-5.5,2-11.1,4-16.6,6c-0.3,0.1-0.7,0.1-1,0.2c-0.5-3.6-0.9-7.2-1.4-10.8
		c-0.5-4.1-1.1-8.2-1.6-12.3c-0.6-4.8-1.3-9.5-1.9-14.3c-0.5-4.1-1.1-8.1-1.6-12.2C170.7,395.1,170.3,391.9,169.9,388.7z"/>
	<path class="st5" d="M169.9,388.7c0.4,3.2,0.8,6.4,1.2,9.6c0.5,4.1,1.1,8.1,1.6,12.2c0.6,4.8,1.3,9.5,1.9,14.3
		c0.5,4.1,1.1,8.2,1.6,12.3c0.5,3.6,0.9,7.2,1.4,10.8c-3.2-1-6.5-2-9.7-3.1c-20.3-7.2-39.6-16.3-57.6-28.2c-0.5-0.4-1-0.8-1.5-1.2
		c5.9-2.6,11.7-5.1,17.6-7.7c8.5-3.7,17-7.4,25.5-11.2c5.4-2.4,10.7-4.8,16.1-7.1C168.6,389,169.3,388.9,169.9,388.7z"/>
	<path class="st5" d="M84.6,340.6c1.5,4.7,2.9,9.4,4.4,14.1c3.6,10.9,7.2,21.8,10.8,32.8c2.9,8.7,5.7,17.4,8.5,26.1
		c0.2,0.6,0.3,1.1,0.4,1.7c-6-4.5-12.2-8.7-17.9-13.4c-14.4-11.9-26.6-25.7-36.6-41.6c-0.4-0.6-0.7-1.3-1.1-2c1-0.5,2.1-1,3.1-1.6
		c9.4-5.4,18.7-10.8,28.1-16.2C84.4,340.6,84.5,340.6,84.6,340.6z"/>
	<path class="st4" d="M84.3,340.6c-9.4,5.4-18.7,10.8-28.1,16.2c-1,0.6-2.1,1-3.1,1.6c-3.2-5.9-6.4-11.7-9.5-17.6
		c-1.3-2.5-2.2-5.2-3.3-7.8c1.8-3.2,3.5-6.4,5.4-9.5c5.8-9.6,11.6-19.2,17.5-28.8c1.3-2.1,2.6-4.1,4-6.5c1.9,5.7,3.7,11,5.4,16.4
		c2.2,6.6,4.3,13.2,6.5,19.8C80.9,329.7,82.6,335.1,84.3,340.6z"/>
	<path class="st6" d="M171.8,90.2c-7.7,0-15,0-22.8,0c4-9.3,7.9-18.5,11.9-28C164.6,71.7,168.2,80.9,171.8,90.2z"/>
</g>
</svg>
